<mxfile host="app.diagrams.net" agent="Mozilla/5.0 (Windows NT 10.0; Win64; x64) AppleWebKit/537.36 (KHTML, like Gecko) Chrome/130.0.0.0 Safari/537.36" version="25.0.3">
  <diagram name="Page-1" id="o1o5VVSx67kqJFUoKe3N">
    <mxGraphModel dx="794" dy="412" grid="0" gridSize="10" guides="1" tooltips="1" connect="1" arrows="1" fold="1" page="1" pageScale="1" pageWidth="1169" pageHeight="1654" math="0" shadow="0">
      <root>
        <mxCell id="0" />
        <mxCell id="1" parent="0" />
        <mxCell id="D6XvM4SYRzuPwP5XaI6j-1" value="start" style="ellipse;whiteSpace=wrap;html=1;" parent="1" vertex="1">
          <mxGeometry x="350" y="40" width="120" height="80" as="geometry" />
        </mxCell>
        <mxCell id="D6XvM4SYRzuPwP5XaI6j-2" value="take input a,b" style="shape=parallelogram;perimeter=parallelogramPerimeter;whiteSpace=wrap;html=1;fixedSize=1;" parent="1" vertex="1">
          <mxGeometry x="354" y="148" width="120" height="60" as="geometry" />
        </mxCell>
        <mxCell id="D6XvM4SYRzuPwP5XaI6j-3" value="sum a+b" style="rounded=0;whiteSpace=wrap;html=1;" parent="1" vertex="1">
          <mxGeometry x="350" y="248" width="120" height="60" as="geometry" />
        </mxCell>
        <mxCell id="D6XvM4SYRzuPwP5XaI6j-4" value="result&amp;nbsp;" style="shape=parallelogram;perimeter=parallelogramPerimeter;whiteSpace=wrap;html=1;fixedSize=1;" parent="1" vertex="1">
          <mxGeometry x="354" y="332" width="120" height="60" as="geometry" />
        </mxCell>
        <mxCell id="D6XvM4SYRzuPwP5XaI6j-5" value="end" style="ellipse;whiteSpace=wrap;html=1;" parent="1" vertex="1">
          <mxGeometry x="350" y="420" width="120" height="80" as="geometry" />
        </mxCell>
      </root>
    </mxGraphModel>
  </diagram>
</mxfile>
